<svg xmlns="http://www.w3.org/2000/svg" viewBox="0 0 207.7 54.15"><defs><style>.cls-1{fill:#262626;}</style></defs><title>Asset 4</title><g id="Layer_2" data-name="Layer 2"><g id="Layer_1-2" data-name="Layer 1"><path class="cls-1" d="M136.11,49.1l-.35-.86h-1.61l-.35.86H133l1.62-3.84h.78L137,49.1ZM135,46.27l-.51,1.23h1Z"/><path class="cls-1" d="M138.33,49.1V45.26h.83V49.1Z"/><path class="cls-1" d="M68.53,54.15V47.79h4.8V49H69.92v1.29h3v1.24h-3V52.9h3.45v1.24Z"/><path class="cls-1" d="M77.54,54.15V47.79h1.39v5.09H82.1v1.27Z"/><path class="cls-1" d="M86.27,54.15V47.79h4.79V49h-3.4v1.29h3v1.24h-3V52.9h3.45v1.24Z"/><path class="cls-1" d="M100.65,54.15V50l-2,2.72h0l-2-2.69v4.12H95.27V47.79h1.51l1.88,2.69,1.87-2.69H102v6.36Z"/><path class="cls-1" d="M106.2,54.15V47.79H111V49h-3.41v1.29h3v1.24h-3V52.9H111v1.24Z"/><path class="cls-1" d="M119.67,54.15l-3.08-4v4h-1.38V47.79h1.29l3,3.92V47.79h1.38v6.36Z"/><path class="cls-1" d="M128.35,49.08v5.07H127V49.08H125V47.79h5.27v1.29Z"/><path class="cls-1" d="M207.24,9.08A2.39,2.39,0,0,0,206,8a3.74,3.74,0,0,0-1.61-.16,6.71,6.71,0,0,0-1.7.42,12.15,12.15,0,0,0-1.45.64A15.36,15.36,0,0,0,198,11.27c-1,.93-1.91,1.89-2.8,2.87s-1.7,2-2.62,3.15-1.81,2.44-2.67,3.75-1.65,2.67-2.37,4.05c-.31.59-.57,1.16-.83,1.73l-.18.18c-.2.23-.39.44-.58.62l-3.82,3.82c-.33.34-.67.65-1,.94a6,6,0,0,1-1.1.76c-.34.19-.58.24-.74.16a.43.43,0,0,1-.25-.39,1.86,1.86,0,0,1,.09-.69,3,3,0,0,1,.35-.78,15.73,15.73,0,0,1,1.68-2.6c.65-.84,1.49-1.86,2.5-3.06A18.7,18.7,0,0,1,185,24.33c.46-.44.9-.89,1.33-1.35a1.52,1.52,0,0,0,.41-1.18,1.78,1.78,0,0,0-.55-1.17,1.71,1.71,0,0,0-1.24-.55,1.64,1.64,0,0,0-.8.39,4,4,0,0,0-.72.71,3.41,3.41,0,0,0-2.71-1.38,5.69,5.69,0,0,0-2.32.3,16.4,16.4,0,0,0-2.19.94,19.11,19.11,0,0,0-4.26,3.32,30.64,30.64,0,0,0-2.1,2.46,3.66,3.66,0,0,0-.4.39q-.33.36-.6.69c-1,1.07-1.73,1.87-2.23,2.39s-1,1-1.4,1.38l-.69.57a7.71,7.71,0,0,1-1.13.76,1.49,1.49,0,0,1-.94.26c-.25,0-.28-.38-.1-1a10.56,10.56,0,0,1,1.78-3.11c.78-1,1.55-1.89,2.32-2.78.4-.49.83-1,1.29-1.52s1-1.12,1.63-1.79,1.36-1.47,2.18-2.39,1.84-2,3-3.32c1.5-.18,3-.33,4.55-.46s3.1-.23,4.7-.32h.92a.85.85,0,0,0,.78-.37,2.17,2.17,0,0,0,.23-.66,4.43,4.43,0,0,0,.09-.9,2,2,0,0,0-.16-.83.91.91,0,0,0-.58-.5,1,1,0,0,0-.55-.05,4.13,4.13,0,0,1-.55.05l-2.67.2c-.92.08-2,.19-3.17.35l2.44-2.3a5.19,5.19,0,0,1,.53-.49,1.22,1.22,0,0,0,.39-.62,1.67,1.67,0,0,0-.26-1.15,2.29,2.29,0,0,0-.85-.82,1.3,1.3,0,0,0-.6-.23.88.88,0,0,0-.64.18,4.77,4.77,0,0,0-.6.51c-.18.18-.38.36-.6.55-.89.76-1.75,1.57-2.59,2.41s-1.68,1.7-2.51,2.56c-1.17.15-2.11.28-2.83.39l-1.73.25-1,.14-.63.09-.85.16c-.26.05-.43.24-.53.58a1.78,1.78,0,0,0,.37,1.79.64.64,0,0,0,.65.3c.24-.05.49-.09.73-.12l2.62-.23c-1.22,1.29-2.43,2.6-3.61,3.94s-2.34,2.69-3.47,4.07l-.69.89a3,3,0,0,0-.32.3c-.22.25-.42.46-.6.65l-1.43,1.42c-.36.37-.75.76-1.17,1.15s-.83.79-1.26,1.15a14.35,14.35,0,0,1-1.34,1,7.49,7.49,0,0,1-1.29.69c-.27.12-.43.12-.46,0a.81.81,0,0,1,.1-.51,4.73,4.73,0,0,1,.39-.71l.43-.67a26.78,26.78,0,0,1,2.72-3,29.11,29.11,0,0,0,2.8-3.11c.22-.3.44-.63.67-1a4.45,4.45,0,0,0,.53-1.1,3.34,3.34,0,0,0,.16-1.17,2,2,0,0,0-.43-1.15,2.51,2.51,0,0,0-1-.79,3.05,3.05,0,0,0-1.66-.13,10.16,10.16,0,0,0-2.71.8,16.16,16.16,0,0,0-2.39,1.36,2.19,2.19,0,0,0-.76-1.38,1.35,1.35,0,0,0-1.45-.32,1.58,1.58,0,0,0-.44.27c-.14.12-.27.25-.39.37q-1.65,1.89-2.87,3.36c-.75.9-1.4,1.71-2,2.45a2.13,2.13,0,0,0-.43.38c-.23.26-.45.5-.66.71-.46.43-1.12,1-2,1.73a24.65,24.65,0,0,1-2.76,2,14.93,14.93,0,0,1-3,1.52,3.9,3.9,0,0,1-2.67.14,1.87,1.87,0,0,1-.92-.62,1.81,1.81,0,0,1-.32-.85,2.41,2.41,0,0,1,.11-.95,7,7,0,0,1,.44-1,5.66,5.66,0,0,0,2.67.37,10.38,10.38,0,0,0,2.71-.64,12.35,12.35,0,0,0,3.31-2,11.46,11.46,0,0,0,2.58-2.87,7.88,7.88,0,0,0,.74-1.7,2.11,2.11,0,0,0-.23-1.75,2.58,2.58,0,0,0-1.54-1.2,5.6,5.6,0,0,0-2.14-.14,10,10,0,0,0-2.26.56,11.47,11.47,0,0,0-1.88.87c-.71.43-1.41.9-2.12,1.43a17.14,17.14,0,0,0-2,1.72,18.45,18.45,0,0,0-1.73,2c-.08.12-.14.24-.22.35s-.13.11-.19.18c-.21.25-.41.46-.6.65-.7.64-1.38,1.31-2,2a18.45,18.45,0,0,1-2.16,1.95c-.19.16-.43.35-.74.58a8,8,0,0,1-.92.6,6,6,0,0,1-.83.39c-.24.09-.4.08-.46,0s0-.32.16-.64A10.59,10.59,0,0,1,124.85,31c.77-.92,1.58-1.81,2.42-2.65a34.79,34.79,0,0,0,2.46-2.74c.25-.3.49-.63.74-1a7,7,0,0,0,.62-1.1,4.07,4.07,0,0,0,.32-1.17,2.5,2.5,0,0,0-.16-1.2,2.28,2.28,0,0,0-1.84-1.42,4.68,4.68,0,0,0-2.94.39,15.14,15.14,0,0,0-2.67,1.58,1,1,0,0,0,0-.25,1.29,1.29,0,0,0-.06-.25A2,2,0,0,0,122.58,20a3.46,3.46,0,0,0-1.73-.23,6.42,6.42,0,0,0-2.09.55,12.77,12.77,0,0,0-2.05,1.15,2.18,2.18,0,0,0-.82-1.06,1.29,1.29,0,0,0-1.25-.18,1.88,1.88,0,0,0-.55.39c-.21.2-.58.57-1.1,1.12-.95,1-1.78,1.95-2.49,2.81s-1.31,1.67-1.9,2.5a7.68,7.68,0,0,1-.54.58l-3.81,3.82c-.34.34-.68.65-1,.94a5.66,5.66,0,0,1-1.1.76c-.34.19-.58.24-.74.16a.44.44,0,0,1-.25-.39,2.41,2.41,0,0,1,.09-.69,3.39,3.39,0,0,1,.35-.78,16.4,16.4,0,0,1,1.68-2.6c.66-.84,1.49-1.86,2.5-3.06a18.7,18.7,0,0,1,1.34-1.45c.46-.44.9-.89,1.33-1.35a1.53,1.53,0,0,0,.42-1.18,1.83,1.83,0,0,0-.55-1.17,1.73,1.73,0,0,0-1.25-.55,1.68,1.68,0,0,0-.8.39,4,4,0,0,0-.71.71,3.43,3.43,0,0,0-2.72-1.38,5.69,5.69,0,0,0-2.32.3,17.6,17.6,0,0,0-2.19.94,18.83,18.83,0,0,0-4.25,3.32,28.35,28.35,0,0,0-2.15,2.52l-.13.12c-.21.23-.41.44-.6.62-1,1-1.79,1.77-2.34,2.35s-1,1.07-1.47,1.47-.67.65-1,.94a5.08,5.08,0,0,1-1.13.76.94.94,0,0,1-.92.07c-.25-.14-.26-.44,0-.9a14.44,14.44,0,0,1,1.8-3.06c.73-1,1.48-1.89,2.25-2.78q2.53-2.89,4.26-4.81c1.15-1.27,2.21-2.42,3.19-3.47s2-2.06,3-3.06l3.52-3.52c.15-.15.33-.31.53-.48a1.14,1.14,0,0,0,.39-.62,1.27,1.27,0,0,0-.12-.83,3,3,0,0,0-.55-.83,1.84,1.84,0,0,0-.8-.5,1,1,0,0,0-.88.14,3,3,0,0,0-.64.53c-.19.19-.37.37-.55.52-.89.8-1.75,1.64-2.58,2.51s-1.65,1.76-2.48,2.65l-3,3.22q-1.5,1.6-3,3.22a2.91,2.91,0,0,0-1.24-1,3.84,3.84,0,0,0-1.56-.35,7.45,7.45,0,0,0-2.28.35,12.38,12.38,0,0,0-2.09.89,19.22,19.22,0,0,0-4.28,3.32,25.8,25.8,0,0,0-2,2.32,2.37,2.37,0,0,0-.37.34c-.22.25-.42.46-.6.65l-1.43,1.42c-.36.37-.76.76-1.17,1.15s-.84.79-1.27,1.15a13,13,0,0,1-1.33,1,7.49,7.49,0,0,1-1.29.69c-.27.12-.43.12-.46,0a.86.86,0,0,1,.09-.51,6,6,0,0,1,.4-.71c.16-.26.31-.49.43-.67a26.78,26.78,0,0,1,2.72-3,29.11,29.11,0,0,0,2.8-3.11c.22-.3.44-.63.67-1A4.45,4.45,0,0,0,74.9,23a3.34,3.34,0,0,0,.16-1.17,2,2,0,0,0-.44-1.15,2.48,2.48,0,0,0-1-.79A3.05,3.05,0,0,0,72,19.76a10.05,10.05,0,0,0-2.71.8,16.78,16.78,0,0,0-2.4,1.36,2.17,2.17,0,0,0-.75-1.38,1.35,1.35,0,0,0-1.45-.32,1.45,1.45,0,0,0-.44.27c-.14.12-.27.25-.39.37Q62.21,22.75,61,24.22c-.75.91-1.41,1.73-2,2.47a2.45,2.45,0,0,0-.34.31c-.21.23-.41.44-.6.62L54.2,31.49l-1,.87a7.14,7.14,0,0,1-1.11.74c-.33.18-.56.22-.66.11a.54.54,0,0,1-.12-.48,2.75,2.75,0,0,1,.19-.69,3.49,3.49,0,0,1,.27-.6,14.46,14.46,0,0,1,1.77-2.83c.72-.9,1.53-1.85,2.42-2.83.43-.52.86-1,1.31-1.45s.88-.89,1.31-1.35a1.89,1.89,0,0,0,.37-.49,1.44,1.44,0,0,0,.09-.57,2.64,2.64,0,0,0-.55-1.24,1.49,1.49,0,0,0-1.24-.6,1.32,1.32,0,0,0-.81.37,7.37,7.37,0,0,0-.62.64l-3.63,4.09c-1.11,1.29-2.24,2.53-3.41,3.71A30,30,0,0,1,45,32.13a9.8,9.8,0,0,1-1.66,1c-.36.16-.61.19-.73.09s-.14-.28,0-.57a5.26,5.26,0,0,1,.46-1c.22-.37.46-.75.74-1.15a9.54,9.54,0,0,1,.83-1.06,37.4,37.4,0,0,1,2.83-3.31c1-1,2-2.12,3-3.22a2.33,2.33,0,0,0,.17-.26,1.2,1.2,0,0,0,.53-.62A1.22,1.22,0,0,0,51,21a2.07,2.07,0,0,0-.8-.78,2.21,2.21,0,0,0-1.13-.31h0c-1.79.09-3.59.23-5.35.42L37.42,21c-2.12.2-4.25.42-6.33.66l-6.6.77L32.06,11a1.37,1.37,0,0,0,.24-1.23,1.64,1.64,0,0,0-.68-.85,1.73,1.73,0,0,0-1.13-.21,1.34,1.34,0,0,0-1,.73l-6,8.92-3,4.51-2.55.33c-.83.1-1.65.19-2.48.27C14.7,21.7,13.89,20,13,18.4c-.4-.71-.83-1.44-1.3-2.21a27,27,0,0,0-1.53-2.3,20.48,20.48,0,0,0-1.81-2.14,11.92,11.92,0,0,0-1.64-1.4c3.27-.8,6.6-1.49,9.9-2.07,3.51-.61,7.06-1.2,10.55-1.74C31.56,5.83,36,5.2,40.28,4.65S49,3.67,53.4,3.36c1.61-.12,3.23-.19,4.82-.23s3.2,0,4.82.1a4.83,4.83,0,0,1,.7.06,3.19,3.19,0,0,0,.87,0,2.57,2.57,0,0,0,.8-.24A1.37,1.37,0,0,0,66,2.39a1.28,1.28,0,0,0,.08-1.16,1.5,1.5,0,0,0-.68-.66,2.86,2.86,0,0,0-1-.3,6.1,6.1,0,0,0-.9-.07h0a61.44,61.44,0,0,0-9.2-.05c-3,.21-6.1.49-9.16.83-5.5.58-11,1.31-16.46,2.16S17.8,5,12.39,6.09c-1.66.34-3.31.68-5,1s-3.33.74-5,1.17l-.82.21a2.75,2.75,0,0,0-.89.38,1.83,1.83,0,0,0-.61.66,1.38,1.38,0,0,0,0,1.1,1.16,1.16,0,0,0,.68.77,6.85,6.85,0,0,0,.79.22h.06a4.63,4.63,0,0,1,1.62.2,5.53,5.53,0,0,1,1.47.7A12.12,12.12,0,0,1,6.06,13.6c.42.39.81.79,1.17,1.18a26.26,26.26,0,0,1,3,4.42,49.43,49.43,0,0,1,2.23,4.63l-3.92.43a1.3,1.3,0,0,0-1,.6,1.4,1.4,0,0,0-.19,1,1.51,1.51,0,0,0,.51.9A1.23,1.23,0,0,0,9,27.05l3.82-.41.72-.11L14,27.86c.09.23.23.72.43,1.45a11,11,0,0,0,.78,2.09,3.06,3.06,0,0,0,1.18,1.4.94.94,0,0,0,.42.11c.42,0,.86-.33,1.31-1l4.22-6.34,3.51-.36c2.3-.26,4.72-.53,7.18-.78l7.21-.74,3.39-.29c.59-.06,1.22-.1,1.83-.14-.73.76-1.44,1.56-2.14,2.41s-1.39,1.76-2,2.66a13.3,13.3,0,0,0-1.38,2.56,6.37,6.37,0,0,0-.48,1.86,3.08,3.08,0,0,0,.39,1.91,2.56,2.56,0,0,0,1.15,1,3.52,3.52,0,0,0,1.52.35,3.88,3.88,0,0,0,1.7-.37c.52-.24,1-.49,1.42-.73a19.8,19.8,0,0,0,2.44-1.8c0,.25.07.49.12.74a1.89,1.89,0,0,0,.3.73,2.45,2.45,0,0,0,1.17,1.08,3.89,3.89,0,0,0,3.06.07A6.56,6.56,0,0,0,54,35.07c.27-.18.51-.38.76-.58a2,2,0,0,0,.78.68A1.81,1.81,0,0,0,57,35.3a.82.82,0,0,0,.5-.46,2.43,2.43,0,0,1,.37-.59L59,32.7c.41-.56.83-1.12,1.26-1.67s.86-1.09,1.29-1.59a13.86,13.86,0,0,1,1.2-1.27,23.24,23.24,0,0,1,1.95-1.74c.69-.56,1.39-1.09,2.09-1.61a22.27,22.27,0,0,1,1.93-1.2,14.54,14.54,0,0,1,2.07-.92q.6-.18.51.09a2.46,2.46,0,0,1-.51.76c-.27.32-.58.64-.91,1l-.7.66L66.5,28a11.24,11.24,0,0,0-2.14,3.22,4.69,4.69,0,0,0-.43,1.63,3.5,3.5,0,0,0,.21,1.59,2.3,2.3,0,0,0,.94,1.17A2.86,2.86,0,0,0,66.8,36a6.29,6.29,0,0,0,3-.92,17.15,17.15,0,0,0,2.5-1.84l.11-.09a3.16,3.16,0,0,0,0,.32A3.33,3.33,0,0,0,74,35.63a3.76,3.76,0,0,0,1.86.41,5.64,5.64,0,0,0,1.84-.41,9.64,9.64,0,0,0,1.77-1c.59-.4,1.14-.81,1.66-1.24a2.8,2.8,0,0,0,.83,1.79A3.33,3.33,0,0,0,84.7,36a4.29,4.29,0,0,0,1.35-.32A7.41,7.41,0,0,0,87.32,35a14.23,14.23,0,0,0,1.15-.9l.9-.8a4.2,4.2,0,0,0,.18.87,2.47,2.47,0,0,0,1.26,1.43,3.87,3.87,0,0,0,2.24.41,6.18,6.18,0,0,0,2.27-.74c.46-.27.91-.56,1.34-.87s.85-.64,1.28-1a3.21,3.21,0,0,0,.37,1.19,2.77,2.77,0,0,0,1.29,1.15,3.86,3.86,0,0,0,1.93.28,5,5,0,0,0,2.69-1l.58-.46a2,2,0,0,0,.74.63,1.79,1.79,0,0,0,1.42.13,1,1,0,0,0,.55-.48,6.79,6.79,0,0,1,.42-.67,30.41,30.41,0,0,1,1.81-2.85A24.28,24.28,0,0,1,112,28.59c.58-.62,1.18-1.22,1.79-1.82a22,22,0,0,1,1.94-1.68,23.24,23.24,0,0,1,1.93-1.4,8.61,8.61,0,0,1,2.16-1c.31-.09.4,0,.28.21a6,6,0,0,1-.6.85c-.28.34-.56.66-.85,1s-.45.47-.49.5l-2.8,3.2a24.5,24.5,0,0,0-2.53,3.52c-.12.21-.25.44-.37.67a1,1,0,0,0-.09.71,1.16,1.16,0,0,0,.41.74,2.42,2.42,0,0,0,.83.46,1.91,1.91,0,0,0,.92,0,1.31,1.31,0,0,0,.78-.46l.56-.73q1.65-2.26,3.45-4.3a36,36,0,0,1,4-3.94c.59-.49,1.21-1,1.87-1.42a7.77,7.77,0,0,1,2.09-1.06c.52-.16.72-.12.6.11a3.66,3.66,0,0,1-.6.76c-1.54,1.57-2.85,2.94-4,4.12a13.78,13.78,0,0,0-2.48,3.56,6,6,0,0,0-.48,1.82,2.9,2.9,0,0,0,.39,1.86,2.2,2.2,0,0,0,1.33,1,4,4,0,0,0,1.93,0,7.58,7.58,0,0,0,2.3-.89,13.89,13.89,0,0,0,2.49-1.8l.69-.59.32-.29a4.14,4.14,0,0,0,.78,1.9,4.19,4.19,0,0,0,2.53,1.7,8.13,8.13,0,0,0,3.15,0,12.66,12.66,0,0,0,3.22-1.06,19.3,19.3,0,0,0,1.83-1,1.38,1.38,0,0,0,0,.2,1.86,1.86,0,0,0,1,1.06,1.81,1.81,0,0,0,1.43.13.82.82,0,0,0,.5-.46,2.43,2.43,0,0,1,.37-.59l1.13-1.55c.41-.56.83-1.12,1.26-1.67s.86-1.09,1.29-1.59a13.86,13.86,0,0,1,1.2-1.27,23.24,23.24,0,0,1,1.95-1.74c.69-.56,1.39-1.09,2.09-1.61a21,21,0,0,1,1.94-1.2,13.61,13.61,0,0,1,2.07-.92c.4-.12.56-.09.5.09a2.58,2.58,0,0,1-.5.76c-.28.32-.59.64-.92,1l-.69.66L153.31,28a10.84,10.84,0,0,0-2.14,3.22,4.71,4.71,0,0,0-.44,1.63,3.5,3.5,0,0,0,.21,1.59,2.3,2.3,0,0,0,.94,1.17,2.86,2.86,0,0,0,1.72.39,6.29,6.29,0,0,0,3-.92,18,18,0,0,0,2.43-1.77,2.81,2.81,0,0,0,.86,1.87,3,3,0,0,0,2.43.87A5.66,5.66,0,0,0,165.45,35a18,18,0,0,0,1.81-1.53,5,5,0,0,0,.17.77,2.47,2.47,0,0,0,1.26,1.43,3.85,3.85,0,0,0,2.23.41,6.23,6.23,0,0,0,2.28-.74c.46-.27.9-.56,1.33-.87s.86-.64,1.29-1a3,3,0,0,0,.37,1.19,2.77,2.77,0,0,0,1.29,1.15,3.85,3.85,0,0,0,1.93.28,5.07,5.07,0,0,0,2.69-1,24.78,24.78,0,0,0,2.14-1.81l1.14-1.14a5.27,5.27,0,0,0,.19,1.21,3.75,3.75,0,0,0,.9,1.52,3.63,3.63,0,0,0,1.63.89,6.5,6.5,0,0,0,1.8.14,6.93,6.93,0,0,0,2.48-.69,18.14,18.14,0,0,0,3.27-2,36.91,36.91,0,0,0,4.18-3.82c.19-.19.37-.38.56-.6a1.66,1.66,0,0,0,.36-.74,1.18,1.18,0,0,0-.41-1.21,1.26,1.26,0,0,0-1.29-.26,1.81,1.81,0,0,0-.71.44c-.2.2-.39.41-.58.62-.95.95-1.86,1.79-2.73,2.53a24.63,24.63,0,0,1-2.42,1.82,10.71,10.71,0,0,1-2,1,1.88,1.88,0,0,1-1.31.14c-.4-.15-.65-.58-.74-1.29a4.61,4.61,0,0,1,.69-2.62c.15-.28.32-.56.51-.85a8.94,8.94,0,0,1,.64-.9,22.34,22.34,0,0,0,2.14-1.12c.75-.45,1.5-.93,2.25-1.45l2.26-1.61c.75-.56,1.46-1.11,2.14-1.66,1-.89,2-1.8,3-2.74a36.42,36.42,0,0,0,2.78-3l1.06-1.4a11.47,11.47,0,0,0,1-1.71,5.84,5.84,0,0,0,.55-1.83A2.61,2.61,0,0,0,207.24,9.08ZM17.15,27.82l-.26-.76-.33-.87L18.38,26Zm63.91,1.89c-.58.6-1.15,1.15-1.7,1.64a10.66,10.66,0,0,1-1.52,1.15,7.52,7.52,0,0,1-1.17.62,1.25,1.25,0,0,1-.83.11c-.2-.06-.29-.24-.27-.55a4,4,0,0,1,.52-1.42,12.75,12.75,0,0,1,.83-1.32c.31-.41.63-.83,1-1.26.49-.61,1.09-1.3,1.79-2.05a25.48,25.48,0,0,1,2.21-2.09A13.06,13.06,0,0,1,84.17,23a3.08,3.08,0,0,1,2-.46.52.52,0,0,1,.37.3,1.06,1.06,0,0,1,.05.71l-2,2.34c-.55.65-1.13,1.3-1.73,2S81.65,29.12,81.06,29.71Zm19-2.34a41.36,41.36,0,0,1-3.64,3.75c-.46.4-1,.85-1.63,1.36a3.8,3.8,0,0,1-2,.85c-.25,0-.38-.1-.41-.28a1.34,1.34,0,0,1,0-.62,4.78,4.78,0,0,1,.25-.69,4.2,4.2,0,0,1,.26-.48,15.32,15.32,0,0,1,2.53-3.55,31.6,31.6,0,0,1,3.31-3.12c.15-.13.49-.37,1-.74a9.65,9.65,0,0,1,1.61-.92,3.77,3.77,0,0,1,1.45-.37c.41,0,.59.31.53.92Q101.76,25.42,100.11,27.37Zm38.18-2.6a16,16,0,0,1,2-1.33,9.59,9.59,0,0,1,2.25-.92c.16.09.18.29.07.59a2.47,2.47,0,0,1-.53.88,12.63,12.63,0,0,1-2.39,2.16,7.5,7.5,0,0,1-3.13,1.29,4,4,0,0,1-1.19,0A16.14,16.14,0,0,1,138.29,24.77ZM178,27.37a39.93,39.93,0,0,1-3.63,3.75c-.46.4-1,.85-1.63,1.36a3.8,3.8,0,0,1-2,.85c-.25,0-.39-.1-.42-.28a1.51,1.51,0,0,1,0-.62,3.83,3.83,0,0,1,.25-.69,4.61,4.61,0,0,1,.25-.48,16,16,0,0,1,2.53-3.55,31.65,31.65,0,0,1,3.32-3.12c.15-.13.49-.37,1-.74a9.65,9.65,0,0,1,1.61-.92,3.73,3.73,0,0,1,1.45-.37c.41,0,.59.31.53.92C180.19,24.77,179.09,26.07,178,27.37ZM204.8,11.25a7,7,0,0,1-.94,1.67c-.39.51-.79,1-1.22,1.55a38.27,38.27,0,0,1-3.31,3.42q-1.76,1.59-3.64,3.06c-.43.34-.85.65-1.28.95l-1.29.89c.52-.86,1.07-1.68,1.65-2.48s1.18-1.6,1.8-2.39a32.36,32.36,0,0,1,2.87-3.29,29.91,29.91,0,0,1,3.34-2.88,4.82,4.82,0,0,1,.64-.41,7.41,7.41,0,0,1,.76-.37,1.16,1.16,0,0,1,.55-.11C204.87,10.87,204.89,11,204.8,11.25Z"/></g></g></svg>